<?xml version="1.0" standalone="no"?>
<!DOCTYPE svg PUBLIC "-//W3C//DTD SVG 20010904//EN"
 "http://www.w3.org/TR/2001/REC-SVG-20010904/DTD/svg10.dtd">
<svg version="1.0" xmlns="http://www.w3.org/2000/svg"
 width="200.000000pt" height="200.000000pt" viewBox="0 0 200.000000 200.000000"
 preserveAspectRatio="xMidYMid meet">
<metadata>
Created by potrace 1.16, written by Peter Selinger 2001-2019
</metadata>
<g transform="translate(0.000000,200.000000) scale(0.100000,-0.100000)"
fill="#0065CE" stroke="none">
<path d="M875 1758 c-14 -13 -78 -115 -143 -228 -65 -113 -200 -346 -300 -517
-138 -238 -182 -321 -182 -346 0 -48 93 -213 130 -232 23 -12 74 -15 242 -15
191 0 216 2 244 19 39 24 258 412 249 441 -3 10 -35 33 -70 52 -52 26 -68 31
-82 22 -10 -6 -58 -84 -108 -172 l-90 -162 -141 0 c-150 0 -172 7 -161 49 2
11 43 86 91 168 47 81 159 274 249 428 141 244 165 280 188 283 24 3 34 -9
111 -140 47 -79 165 -277 262 -441 141 -237 176 -304 172 -323 l-6 -24 -168 0
c-117 0 -172 -4 -180 -12 -7 -7 -12 -43 -12 -90 0 -66 3 -79 19 -88 31 -16
394 -13 435 4 26 11 42 31 79 104 30 58 47 103 47 126 0 29 -58 133 -315 565
-230 384 -322 531 -341 540 -14 6 -63 11 -109 11 -73 0 -87 -3 -110 -22z"/>
</g>
</svg>
